# xmcd
#
# Track frame offsets: 
#        150
#        5145
#        6183
#        11554
#        20450
#        29018
#        34967
#        46889
#        58674
#        71046
#        83062
#        95209
#        100550
#        119103
#        138830
#        177645
#        192326
#        233010
#        249106
#        268462
#
# Disc length: 4069 seconds
#
# Revision: 0
# Processed by: cddbd v1.5.2PL0 Copyright (c) Steve Scherf et al.
# Submitted via: ExactAudioCopy v0.95b3
#
DISCID=1a0fe314
DTITLE=Jimi Hendrix  - Moonbeams and Fairytales - Disc 04
DYEAR=1900
DGENRE=
TTITLE0=Fire
TTITLE1=Fire
TTITLE2=Fire
TTITLE3=Fire
TTITLE4=Fire
TTITLE5=Fire
TTITLE6=Fire
TTITLE7=Fire
TTITLE8=Fire
TTITLE9=Fire
TTITLE10=Fire
TTITLE11=Fire
TTITLE12=Have Mercy
TTITLE13=Can You See Me
TTITLE14=Like a Rolling Stone
TTITLE15=Rock Me Baby
TTITLE16=Catfish Blues
TTITLE17=Stone Free
TTITLE18=Hey Joe
TTITLE19=Wild Thing
EXTD=
EXTT0=
EXTT1=
EXTT2=
EXTT3=
EXTT4=
EXTT5=
EXTT6=
EXTT7=
EXTT8=
EXTT9=
EXTT10=
EXTT11=
EXTT12=
EXTT13=
EXTT14=
EXTT15=
EXTT16=
EXTT17=
EXTT18=
EXTT19=
PLAYORDER=
